<mxfile host="app.diagrams.net" modified="2023-03-08T11:06:09.948Z" agent="5.0 (Windows NT 10.0; Win64; x64) AppleWebKit/537.36 (KHTML, like Gecko) Chrome/110.0.0.0 Safari/537.36" etag="uZ4rceMm_Sjk63LiWExi" version="21.0.2" type="github">
  <diagram name="Strona-1" id="zlYq6fb4mCsAohhoARjG">
    <mxGraphModel dx="1434" dy="796" grid="1" gridSize="10" guides="1" tooltips="1" connect="1" arrows="1" fold="1" page="1" pageScale="1" pageWidth="827" pageHeight="1169" math="0" shadow="0">
      <root>
        <mxCell id="0" />
        <mxCell id="1" parent="0" />
        <mxCell id="qGaL0oA3_wvvHRosaeqy-3" style="edgeStyle=orthogonalEdgeStyle;rounded=0;orthogonalLoop=1;jettySize=auto;html=1;exitX=0.5;exitY=1;exitDx=0;exitDy=0;entryX=0.5;entryY=0;entryDx=0;entryDy=0;" edge="1" parent="1" source="qGaL0oA3_wvvHRosaeqy-1" target="qGaL0oA3_wvvHRosaeqy-2">
          <mxGeometry relative="1" as="geometry" />
        </mxCell>
        <mxCell id="qGaL0oA3_wvvHRosaeqy-1" value="Start" style="ellipse;whiteSpace=wrap;html=1;" vertex="1" parent="1">
          <mxGeometry x="354" y="80" width="120" height="80" as="geometry" />
        </mxCell>
        <mxCell id="qGaL0oA3_wvvHRosaeqy-4" style="edgeStyle=orthogonalEdgeStyle;rounded=0;orthogonalLoop=1;jettySize=auto;html=1;exitX=0.5;exitY=1;exitDx=0;exitDy=0;" edge="1" parent="1" source="qGaL0oA3_wvvHRosaeqy-2">
          <mxGeometry relative="1" as="geometry">
            <mxPoint x="415" y="320" as="targetPoint" />
          </mxGeometry>
        </mxCell>
        <mxCell id="qGaL0oA3_wvvHRosaeqy-2" value="pobierz a&lt;br&gt;a [0,1,2,3,4]&lt;br&gt;i=0&lt;br&gt;j=a dł" style="rounded=0;whiteSpace=wrap;html=1;" vertex="1" parent="1">
          <mxGeometry x="330" y="190" width="170" height="80" as="geometry" />
        </mxCell>
        <mxCell id="qGaL0oA3_wvvHRosaeqy-29" style="edgeStyle=orthogonalEdgeStyle;rounded=0;orthogonalLoop=1;jettySize=auto;html=1;exitX=0.5;exitY=1;exitDx=0;exitDy=0;entryX=0;entryY=0.5;entryDx=0;entryDy=0;" edge="1" parent="1" source="qGaL0oA3_wvvHRosaeqy-8" target="qGaL0oA3_wvvHRosaeqy-23">
          <mxGeometry relative="1" as="geometry" />
        </mxCell>
        <mxCell id="qGaL0oA3_wvvHRosaeqy-8" value="Wyswietl &quot;Słowo nie jest palindromem&quot;" style="rounded=0;whiteSpace=wrap;html=1;" vertex="1" parent="1">
          <mxGeometry x="120" y="330" width="120" height="60" as="geometry" />
        </mxCell>
        <mxCell id="qGaL0oA3_wvvHRosaeqy-10" style="edgeStyle=orthogonalEdgeStyle;rounded=0;orthogonalLoop=1;jettySize=auto;html=1;exitX=0;exitY=0.5;exitDx=0;exitDy=0;entryX=1;entryY=0.5;entryDx=0;entryDy=0;" edge="1" parent="1" source="qGaL0oA3_wvvHRosaeqy-9" target="qGaL0oA3_wvvHRosaeqy-8">
          <mxGeometry relative="1" as="geometry" />
        </mxCell>
        <mxCell id="qGaL0oA3_wvvHRosaeqy-12" style="edgeStyle=orthogonalEdgeStyle;rounded=0;orthogonalLoop=1;jettySize=auto;html=1;exitX=1;exitY=0.5;exitDx=0;exitDy=0;" edge="1" parent="1" source="qGaL0oA3_wvvHRosaeqy-9">
          <mxGeometry relative="1" as="geometry">
            <mxPoint x="570" y="360" as="targetPoint" />
          </mxGeometry>
        </mxCell>
        <mxCell id="qGaL0oA3_wvvHRosaeqy-9" value="a[i] = b[j]" style="rhombus;whiteSpace=wrap;html=1;" vertex="1" parent="1">
          <mxGeometry x="350" y="320" width="130" height="80" as="geometry" />
        </mxCell>
        <mxCell id="qGaL0oA3_wvvHRosaeqy-11" value="NIE" style="text;html=1;align=center;verticalAlign=middle;resizable=0;points=[];autosize=1;strokeColor=none;fillColor=none;" vertex="1" parent="1">
          <mxGeometry x="280" y="335" width="40" height="30" as="geometry" />
        </mxCell>
        <mxCell id="qGaL0oA3_wvvHRosaeqy-13" value="TAK" style="text;html=1;align=center;verticalAlign=middle;resizable=0;points=[];autosize=1;strokeColor=none;fillColor=none;" vertex="1" parent="1">
          <mxGeometry x="495" y="325" width="50" height="30" as="geometry" />
        </mxCell>
        <mxCell id="qGaL0oA3_wvvHRosaeqy-20" style="edgeStyle=orthogonalEdgeStyle;rounded=0;orthogonalLoop=1;jettySize=auto;html=1;exitX=0.5;exitY=1;exitDx=0;exitDy=0;" edge="1" parent="1" source="qGaL0oA3_wvvHRosaeqy-15">
          <mxGeometry relative="1" as="geometry">
            <mxPoint x="630" y="450" as="targetPoint" />
          </mxGeometry>
        </mxCell>
        <mxCell id="qGaL0oA3_wvvHRosaeqy-15" value="i+1&lt;br&gt;j-1" style="rounded=0;whiteSpace=wrap;html=1;" vertex="1" parent="1">
          <mxGeometry x="570" y="330" width="120" height="60" as="geometry" />
        </mxCell>
        <mxCell id="qGaL0oA3_wvvHRosaeqy-22" style="edgeStyle=orthogonalEdgeStyle;rounded=0;orthogonalLoop=1;jettySize=auto;html=1;exitX=0;exitY=0.5;exitDx=0;exitDy=0;" edge="1" parent="1" source="qGaL0oA3_wvvHRosaeqy-21">
          <mxGeometry relative="1" as="geometry">
            <mxPoint x="520" y="490" as="targetPoint" />
          </mxGeometry>
        </mxCell>
        <mxCell id="qGaL0oA3_wvvHRosaeqy-27" style="edgeStyle=orthogonalEdgeStyle;rounded=0;orthogonalLoop=1;jettySize=auto;html=1;exitX=1;exitY=0.5;exitDx=0;exitDy=0;entryX=0.5;entryY=0;entryDx=0;entryDy=0;" edge="1" parent="1" source="qGaL0oA3_wvvHRosaeqy-21" target="qGaL0oA3_wvvHRosaeqy-9">
          <mxGeometry relative="1" as="geometry" />
        </mxCell>
        <mxCell id="qGaL0oA3_wvvHRosaeqy-21" value="i = j" style="rhombus;whiteSpace=wrap;html=1;" vertex="1" parent="1">
          <mxGeometry x="570" y="450" width="120" height="80" as="geometry" />
        </mxCell>
        <mxCell id="qGaL0oA3_wvvHRosaeqy-23" value="STOP" style="ellipse;whiteSpace=wrap;html=1;" vertex="1" parent="1">
          <mxGeometry x="400" y="545" width="120" height="80" as="geometry" />
        </mxCell>
        <mxCell id="qGaL0oA3_wvvHRosaeqy-24" value="TAK" style="text;html=1;align=center;verticalAlign=middle;resizable=0;points=[];autosize=1;strokeColor=none;fillColor=none;" vertex="1" parent="1">
          <mxGeometry x="525" y="465" width="50" height="30" as="geometry" />
        </mxCell>
        <mxCell id="qGaL0oA3_wvvHRosaeqy-26" style="edgeStyle=orthogonalEdgeStyle;rounded=0;orthogonalLoop=1;jettySize=auto;html=1;exitX=0.5;exitY=1;exitDx=0;exitDy=0;entryX=0.5;entryY=0;entryDx=0;entryDy=0;" edge="1" parent="1" source="qGaL0oA3_wvvHRosaeqy-25" target="qGaL0oA3_wvvHRosaeqy-23">
          <mxGeometry relative="1" as="geometry" />
        </mxCell>
        <mxCell id="qGaL0oA3_wvvHRosaeqy-25" value="Wyswietl &quot;Slowo jest palindromem&quot;" style="rounded=0;whiteSpace=wrap;html=1;" vertex="1" parent="1">
          <mxGeometry x="400" y="460" width="120" height="60" as="geometry" />
        </mxCell>
        <mxCell id="qGaL0oA3_wvvHRosaeqy-28" value="NIE" style="text;html=1;align=center;verticalAlign=middle;resizable=0;points=[];autosize=1;strokeColor=none;fillColor=none;" vertex="1" parent="1">
          <mxGeometry x="680" y="490" width="40" height="30" as="geometry" />
        </mxCell>
      </root>
    </mxGraphModel>
  </diagram>
</mxfile>
